<svg xmlns="http://www.w3.org/2000/svg" viewBox="0 0 983.13206 219.99489"><defs><style>.cls-1{fill:#00afaa;}</style></defs><g id="Layer_2" data-name="Layer 2"><g id="Layer_1-2" data-name="Layer 1"><rect class="cls-1" y="112.85248" width="61.50304" height="61.50304"/><polygon class="cls-1" points="147.795 26.56 147.795 174.356 86.291 174.356 86.291 88.064 0 88.064 0 26.56 147.795 26.56"/><path class="cls-1" d="M433.21613,77.121q0-13.47567,0-26.96358c0-1.175-.00408-1.175-.90979-1.35858a32.98707,32.98707,0,0,0-14.40179-.03672c-11.98246,2.8722-20.51747,9.91806-25.15215,21.63941a45.89653,45.89653,0,0,0-1.80329,6.09118,4.19766,4.19766,0,0,1-.13871-1.57482q-.01224-11.38884-.00816-22.78176c0-1.56257.15912-1.42794-1.45241-1.42794q-15.67267,0-31.35757,0c-1.80329.00408-1.59113-.22847-1.59113,1.64825q-.01224,60.21215-.00816,120.43654c0,.28966.02448.57934-.00408.86492-.053.612.24479.79557.79557.7466.28151-.02448.563,0,.84453,0q15.98476,0,31.96546-.00815c2.02767,0,1.75432.27335,1.75432-1.72985q.01223-32.38568.00815-64.77134a31.90936,31.90936,0,0,1,.27743-4.91212,21.98152,21.98152,0,0,1,5.85047-12.17829,25.99286,25.99286,0,0,1,13.594-7.31105c5.12833-1.14235,10.26485-.718,15.40542-.13056,2.08479.23256,4.141.61605,6.17278,1.04444a2.23117,2.23117,0,0,0,.15912-1.25251C433.22022,81.15186,433.21613,79.13642,433.21613,77.121Z"/><path class="cls-1" d="M839.80364,139.78715a25.14908,25.14908,0,0,1-9.95071,3.9044c-5.6628.99548-10.63609-.29783-14.73633-4.56125a41.96855,41.96855,0,0,1-5.35274-7.12337q-7.19682-11.68872-14.37731-23.37334c-1.15457-1.88488-1.19133-1.16683.1387-2.87221Q814.01909,82.029,832.54969,58.32114c.75476-.95876,1.83593-1.77473,2.10113-2.95787a16.54346,16.54346,0,0,0,.07345-3.68409c-.01225-.9506-.0245-.9506-.93021-.971-.28148-.01224-.563-.00408-.8445-.00408H797.71617c-2.15825,0-2.15008.00408-3.3822,1.787q-16.303,23.63444-32.61412,47.25257c-.14687.21623-.22441.52629-.68135.58749v-1.33q0-48.8233.00409-97.64661c0-.45286.01633-.90164.02853-1.3545H725.7194c-.01633.45286-.053.90164-.053,1.34634q-.00612,85.76819-.00408,171.54046c0,.28559.01633.57525,0,.86083-.02451.46511.17137.68134.63647.65278.32233-.01224.6446,0,.96692,0q16.10108,0,32.20619,0c1.7788,0,1.56664.19175,1.56664-1.55033q.00613-26.35161,0-52.70322v-1.28923a2.165,2.165,0,0,1,.80372.80781q9.89565,16.21121,19.78308,32.42648a78.744,78.744,0,0,0,6.846,10.273,39.80282,39.80282,0,0,0,16.46618,11.94165,43.9405,43.9405,0,0,0,12.27211,2.607,54.16071,54.16071,0,0,0,13.96933-.70989A44.331,44.331,0,0,0,852.292,165.86134c1.15866-.99956.93021-.87308.39981-1.889C848.60794,156.15133,840.21979,139.87282,839.80364,139.78715Z"/><path class="cls-1" d="M708.79628,52.22587c0-.28967-.01225-.57933,0-.86492.0245-.4651-.17137-.68133-.63239-.65685-.24478.01223-.48548,0-.73031,0H674.746c-.24478,0-.48547.01223-.72214.00816-.408-.01224-.59564.17135-.58343.58749.01225.28967,0,.57526,0,.86493q0,6.952-.00409,13.91629a1.89983,1.89983,0,0,1-.14687,1.11379c-.19582-.21623-.3386-.35086-.45693-.5059a45.72818,45.72818,0,0,0-7.00917-7.2825,48.08348,48.08348,0,0,0-28.722-11.31336,60.27151,60.27151,0,0,0-16.7069,1.42794A52.42955,52.42955,0,0,0,586.23,73.58785c-6.45838,10.273-9.44481,21.67613-10.10166,33.74834a82.38617,82.38617,0,0,0,.88123,17.66565,69.129,69.129,0,0,0,8.176,23.78132c6.78067,11.77031,16.39683,20.16251,29.06061,24.76457a60.34135,60.34135,0,0,0,25.48261,3.35362,44.4749,44.4749,0,0,0,10.77076-2.11744,42.13668,42.13668,0,0,0,18.55913-12.69235c1.46873-1.685,2.82326-3.47194,4.22262-5.418a2.88587,2.88587,0,0,1,.151,1.38307q.00612,7.62519.00408,15.26672c0,1.06891.01225,1.06891,1.05666,1.08932h32.80587c1.6768-.00408,1.48914.1836,1.48914-1.50137Q708.80044,112.55225,708.79628,52.22587Zm-36.12685,74.261c-3.73713,11.76214-11.74992,18.61217-23.63038,20.803a32.32122,32.32122,0,0,1-16.01741-.87716c-8.10253-2.61926-13.83877-8.03727-17.60853-15.68695a39.40167,39.40167,0,0,1-3.77792-13.52463c-.17543-1.68088-.23256-3.35362-.24478-5.0345a40.72707,40.72707,0,0,1,4.19813-18.88961,27.94706,27.94706,0,0,1,15.63388-14.27124,29.7394,29.7394,0,0,1,9.963-1.74209,32.259,32.259,0,0,1,17.482,4.43478c6.49919,3.91255,10.73809,9.69367,13.25945,16.83745a43.9938,43.9938,0,0,1,2.301,11.40719A43.19347,43.19347,0,0,1,672.66943,126.48691Z"/><path class="cls-1" d="M983.11578,50.749c-.19991-.01223-.39982-.03671-.59973-.03671q-16.77423-.00612-33.53616-.00408a3.59289,3.59289,0,0,1-.36312,0c-.59563-.0612-.79554.23255-.75475.80373.0245.28558,0,.57525,0,.85676q0,6.84188,0,13.66743a2.18347,2.18347,0,0,1-.102,1.05667,2.29245,2.29245,0,0,1-.79963-.8282,46.60345,46.60345,0,0,0-5.25482-5.61793,48.18732,48.18732,0,0,0-29.9582-12.54955,59.70775,59.70775,0,0,0-16.5886,1.35858c-17.01286,3.74936-29.44414,13.59807-37.37121,29.30541-4.81831,9.5468-6.92346,19.80757-7.30291,30.47224a81.78,81.78,0,0,0,.89755,15.20552,68.92124,68.92124,0,0,0,8.1719,24.173c6.3972,11.20729,15.39727,19.42,27.2859,24.2097a59.66175,59.66175,0,0,0,29.80725,3.81056,40.25543,40.25543,0,0,0,17.82474-6.51957,49.83223,49.83223,0,0,0,12.574-12.48836c.20808-.27743.32232-.65685.72214-.767a2.82665,2.82665,0,0,1,.09791,1.228q.00612,7.38653,0,14.78122c0,.28559.01225.57526,0,.86084-.01225.45285.14687.70988.62423.67317.1999-.01224.408,0,.60789,0h33.173c.27745,0,.563-.0204.84451-.02856.00816-.408.01633-.82413.01633-1.228V51.98106C983.128,51.569,983.11986,51.157,983.11578,50.749Zm-37.35489,79.4261c-4.088,9.17553-11.15423,14.66291-20.73366,16.82521a33.11471,33.11471,0,0,1-16.7518-.34679c-8.26165-2.403-14.19782-7.71087-18.143-15.37687a40.28837,40.28837,0,0,1-4.17774-15.67062,43.73076,43.73076,0,0,1,2.48051-18.61626c2.45607-6.6542,6.45024-12.08037,12.53731-15.74814A28.33228,28.33228,0,0,1,915.27235,77.276a32.79629,32.79629,0,0,1,16.90678,3.87991,30.12216,30.12216,0,0,1,13.1697,14.76082,42.293,42.293,0,0,1,3.2149,12.5618c.19583,1.84.18358,3.68408.24887,4.91211A39.02571,39.02571,0,0,1,945.76089,130.17507Z"/><path class="cls-1" d="M581.88509,51.78117q-7.68027,17.64933-15.42175,35.30275-11.35212,25.9783-22.67161,51.9607-6.60318,15.01785-13.14928,30.06425h0c-1.32186,3.05172-2.61924,6.1279-3.9411,9.17962-1.52585,3.50865-3.04762,7.16417-4.5735,10.70139a80.66544,80.66544,0,0,1-5.35273,11.13385,40.11419,40.11419,0,0,1-14.67107,14.18558,44.25472,44.25472,0,0,1-11.76624,4.345,52.68229,52.68229,0,0,1-13.92445,1.2933A44.05377,44.05377,0,0,1,454.06,212.75489c-1.2933-.83636-1.03627-.74661-.66093-1.81144,2.70493-7.6252,7.96791-22.64305,9.17961-25.348.11425-.257.257-.34679.4039-.34679a1.2744,1.2744,0,0,1,.4039.11424,25.66,25.66,0,0,0,9.84054,2.21534c5.724.17136,10.47292-1.81144,13.953-6.61748a43.15127,43.15127,0,0,0,4.31647-7.82511c1.0077-2.301,2.01543-4.602,3.01908-6.87451a9.16451,9.16451,0,0,0,.43246-2.73349,6.8981,6.8981,0,0,0-.71805-3.10883q-15.538-35.08449-31.0434-70.23016-8.41466-19.07523-16.8293-38.179a2.65887,2.65887,0,0,1-.40389-1.122c.22847-.28967.51814-.17135.77517-.17135h37.88937c1.03626,0,1.03626,0,1.38306.9506q11.99469,32.06745,23.99347,64.15938c1.32186,3.59433,2.67637,7.19274,4.02679,10.78707l.43246,1.12195c.461-.257.461-.66093.57525-.97915q9.62634-25.72128,19.22006-51.414c2.90484-7.768,5.78111-15.56455,8.71859-23.33254.57525-1.55442.31824-1.29331,1.89713-1.29331h37.257C582.31346,51.17736,582.02787,51.46294,581.88509,51.78117Z"/><path class="cls-1" d="M339.28792,52.22587c0-.28967-.01225-.57933,0-.86492.0245-.4651-.17137-.68133-.6324-.65685-.24478.01223-.48547,0-.7303,0H305.23764c-.24478,0-.48548.01223-.72214.00816-.408-.01224-.59564.17135-.58344.58749.01225.28967,0,.57526,0,.86493q0,6.952-.00408,13.91629a1.89991,1.89991,0,0,1-.14687,1.11379c-.19582-.21623-.33861-.35086-.45694-.5059a45.72774,45.72774,0,0,0-7.00917-7.2825A48.08344,48.08344,0,0,0,267.593,48.093a60.27151,60.27151,0,0,0-16.7069,1.42794,52.42955,52.42955,0,0,0-34.16448,24.06691c-6.45837,10.273-9.44481,21.67613-10.10165,33.74834a82.38617,82.38617,0,0,0,.88123,17.66565,69.12881,69.12881,0,0,0,8.176,23.78132c6.78068,11.77031,16.39684,20.16251,29.06061,24.76457a60.3414,60.3414,0,0,0,25.48262,3.35362,44.475,44.475,0,0,0,10.77076-2.11744,42.13668,42.13668,0,0,0,18.55913-12.69235c1.46873-1.685,2.82326-3.47194,4.22261-5.418a2.88587,2.88587,0,0,1,.15095,1.38307q.00614,7.62519.00409,15.26672c0,1.06891.01225,1.06891,1.05666,1.08932h32.80586c1.67681-.00408,1.48915.1836,1.48915-1.50137Q339.29208,112.55225,339.28792,52.22587Zm-36.12685,74.261c-3.73714,11.76214-11.74993,18.61217-23.63039,20.803a32.32119,32.32119,0,0,1-16.0174-.87716c-8.10254-2.61926-13.83878-8.03727-17.60853-15.68695a39.4019,39.4019,0,0,1-3.77793-13.52463c-.17543-1.68088-.23255-3.35362-.24478-5.0345a40.72708,40.72708,0,0,1,4.19814-18.88961,27.947,27.947,0,0,1,15.63388-14.27124,29.73935,29.73935,0,0,1,9.963-1.74209,32.25905,32.25905,0,0,1,17.482,4.43478c6.49919,3.91255,10.73809,9.69367,13.25944,16.83745a43.99381,43.99381,0,0,1,2.301,11.40719A43.19347,43.19347,0,0,1,303.16107,126.48691Z"/></g></g></svg>